<?xml version="1.0" encoding="UTF-8"?>
<svg version="1.1" xmlns="http://www.w3.org/2000/svg" width="362" height="100">
<path d="M0 0 C4.95 0 9.9 0 15 0 C15.33 5.94 15.66 11.88 16 18 C16.92683594 16.78441406 17.85367188 15.56882812 18.80859375 14.31640625 C20.01819022 12.73174111 21.22782776 11.1471073 22.4375 9.5625 C23.04916016 8.76005859 23.66082031 7.95761719 24.29101562 7.13085938 C24.87431641 6.36708984 25.45761719 5.60332031 26.05859375 4.81640625 C26.59798584 4.10943604 27.13737793 3.40246582 27.69311523 2.67407227 C29 1 29 1 30 0 C32.86267567 -0.07325168 35.700719 -0.09238205 38.5625 -0.0625 C39.36880859 -0.05798828 40.17511719 -0.05347656 41.00585938 -0.04882812 C43.00393756 -0.03700518 45.00197783 -0.01906914 47 0 C45.43903552 3.54314159 43.29328459 6.22849188 40.8125 9.1875 C36.77297327 14.05061955 32.85016743 18.98611637 29 24 C30.47079084 27.24460895 32.31424176 29.80554495 34.5625 32.5625 C35.26632813 33.43261719 35.97015625 34.30273438 36.6953125 35.19921875 C38.28258833 37.12816243 39.88232544 39.04689711 41.4921875 40.95703125 C42.70261719 42.40142578 42.70261719 42.40142578 43.9375 43.875 C45.06478516 45.20144531 45.06478516 45.20144531 46.21484375 46.5546875 C47.921522 48.8925006 48.42080538 50.24564019 49 53 C33.14680739 53.26841384 33.14680739 53.26841384 28.52734375 50.5390625 C26.73487551 48.46268085 25.39102282 46.36436587 24 44 C22.53203649 41.99176267 21.05256178 39.99189606 19.5625 38 C18.386875 36.35 17.21125 34.7 16 33 C15.67 39.27 15.34 45.54 15 52 C10.05 52 5.1 52 0 52 C0 34.84 0 17.68 0 0 Z " fill="#0A0A0A" transform="translate(196,10)"/>
<path d="M0 0 C10.23 0 20.46 0 31 0 C31 3.96 31 7.92 31 12 C25.72 12 20.44 12 15 12 C15 14.64 15 17.28 15 20 C19.95 20 24.9 20 30 20 C30.09765625 29.27734375 30.09765625 29.27734375 30 32 C29 33 29 33 26.05859375 33.09765625 C24.86363281 33.08605469 23.66867188 33.07445312 22.4375 33.0625 C20.64119141 33.04896484 20.64119141 33.04896484 18.80859375 33.03515625 C17.88175781 33.02355469 16.95492187 33.01195312 16 33 C15.67 35.31 15.34 37.62 15 40 C20.28 40 25.56 40 31 40 C31 43.96 31 47.92 31 52 C20.77 52 10.54 52 0 52 C0 34.84 0 17.68 0 0 Z " fill="#060606" transform="translate(118,10)"/>
<path d="M0 0 C0.85464844 -0.01417969 1.70929688 -0.02835938 2.58984375 -0.04296875 C5.20159303 0.20046444 6.81750652 0.8696732 9.0625 2.1875 C9.3925 1.8575 9.7225 1.5275 10.0625 1.1875 C14.6825 1.1875 19.3025 1.1875 24.0625 1.1875 C24.0625 12.7375 24.0625 24.2875 24.0625 36.1875 C18.72916667 36.1875 13.39583333 36.1875 8.0625 36.1875 C7.381875 36.538125 6.70125 36.88875 6 37.25 C1.81984478 38.58409209 -1.7021039 38.22015841 -5.9375 37.1875 C-11.26098534 34.37509265 -14.56552952 30.93144097 -17.25 25.5625 C-18.52097835 19.32315173 -18.08633935 13.44414873 -15.1875 7.75 C-10.60957818 2.5362557 -6.98278461 0.05250214 0 0 Z M-2.9375 14.1875 C-4.00154602 17.84515818 -4.45008002 20.0417329 -2.875 23.5625 C-0.1809698 25.8220092 1.55517067 26.1875 5.0625 26.1875 C8.07229883 24.84634601 8.07229883 24.84634601 10.0625 22.1875 C10.89583333 18.6875 10.89583333 18.6875 10.0625 15.1875 C7.87751244 12.65558501 7.87751244 12.65558501 5.0625 11.1875 C1.33722933 11.1875 -0.05825508 11.83864231 -2.9375 14.1875 Z " fill="#151515" transform="translate(304.9375,25.8125)"/>
<path d="M0 0 C4.29854687 3.38099162 6.88098124 6.51680809 8 12 C8.47509007 17.22599077 7.92227579 21.58736356 5 26 C-0.37886469 31.97247814 -5.29309338 34.46714265 -13.3125 35.375 C-19.9829216 34.69665204 -25.91424379 32.68166516 -30.5 27.625 C-34.39888553 22.41175929 -35.58324355 17.73547837 -34.671875 11.3125 C-33.15131838 6.07895629 -29.6889445 2.2466019 -25.375 -0.9375 C-17.42758783 -4.49292123 -7.48883756 -4.49330253 0 0 Z M-17.875 9.5 C-20.31230424 11.91529307 -20.31230424 11.91529307 -20.5 15.5625 C-20.22536505 18.85682298 -20.22536505 18.85682298 -18.9375 20.9375 C-15.88023824 22.6140629 -13.4093712 22.36528977 -10 22 C-7.57805073 20.46609879 -7.11270599 19.30591626 -6.125 16.625 C-5.95700701 13.09714716 -6.70507777 11.66507098 -9 9 C-12.78203912 7.60228989 -14.28541998 7.62717564 -17.875 9.5 Z " fill="#121212" transform="translate(277,29)"/>
<path d="M0 0 C0.66 0 1.32 0 2 0 C2 22.11 2 44.22 2 67 C-1.76478859 65.74507047 -2.69380667 64.16902481 -5.125 61.0625 C-8.1688442 57.24412818 -11.26435861 53.53859025 -14.5625 49.9375 C-18.38032457 45.75798679 -21.91189091 41.41308672 -25.37109375 36.93359375 C-26.86321702 34.90342492 -26.86321702 34.90342492 -29 34 C-27.51993197 30.63551546 -25.60866795 28.25996355 -23.125 25.5625 C-21.92810547 24.25539063 -21.92810547 24.25539063 -20.70703125 22.921875 C-19.81371094 21.95765625 -18.92039062 20.9934375 -18 20 C-16.46030348 18.33638526 -14.92089848 16.67250206 -13.38183594 15.00830078 C-12.34065896 13.88322061 -11.29835127 12.75918571 -10.25488281 11.63623047 C-7.54739016 8.71406607 -4.91638753 5.75704875 -2.375 2.6875 C-1.59125 1.800625 -0.8075 0.91375 0 0 Z " fill="#0672BD" transform="translate(96,2)"/>
<path d="M0 0 C3.13234551 2.01862266 4.76073491 3.70477499 6.8125 6.8125 C7.26660156 9.95043945 7.26660156 9.95043945 7.203125 13.42578125 C7.19023437 14.67294922 7.17734375 15.92011719 7.1640625 17.20507812 C7.13054687 18.49865234 7.09703125 19.79222656 7.0625 21.125 C7.04445312 22.43791016 7.02640625 23.75082031 7.0078125 25.10351562 C6.96073409 28.34015615 6.888993 31.57642103 6.8125 34.8125 C2.5225 34.8125 -1.7675 34.8125 -6.1875 34.8125 C-6.24808594 33.33136719 -6.30867188 31.85023437 -6.37109375 30.32421875 C-6.45550315 28.38280266 -6.54015095 26.44139692 -6.625 24.5 C-6.66431641 23.52353516 -6.70363281 22.54707031 -6.74414062 21.54101562 C-6.78603516 20.60322266 -6.82792969 19.66542969 -6.87109375 18.69921875 C-6.90775146 17.83514404 -6.94440918 16.97106934 -6.98217773 16.08081055 C-7.11497354 13.6477174 -7.11497354 13.6477174 -8.1875 10.8125 C-11.10384129 10.5622843 -11.10384129 10.5622843 -14.1875 10.8125 C-16.31030563 13.99670845 -16.46769537 15.01787255 -16.6015625 18.69921875 C-16.65957031 20.1059082 -16.65957031 20.1059082 -16.71875 21.54101562 C-16.7496875 22.51748047 -16.780625 23.49394531 -16.8125 24.5 C-16.87050781 25.98209961 -16.87050781 25.98209961 -16.9296875 27.49414062 C-17.02395399 29.9332861 -17.1068159 32.37286747 -17.1875 34.8125 C-21.4775 34.8125 -25.7675 34.8125 -30.1875 34.8125 C-30.1875 23.2625 -30.1875 11.7125 -30.1875 -0.1875 C-25.8975 -0.1875 -21.6075 -0.1875 -17.1875 -0.1875 C-16.8575 0.4725 -16.5275 1.1325 -16.1875 1.8125 C-14.9190625 1.07 -14.9190625 1.07 -13.625 0.3125 C-8.6392173 -1.86311427 -5.09192454 -1.89699149 0 0 Z " fill="#101010" transform="translate(183.1875,27.1875)"/>
<path d="M0 0 C1.093125 0.00257812 2.18625 0.00515625 3.3125 0.0078125 C4.405625 0.00523438 5.49875 0.00265625 6.625 0 C9.3125 0.1328125 9.3125 0.1328125 10.3125 1.1328125 C10.38455511 2.81890216 10.39636068 4.50781909 10.375 6.1953125 C10.36597656 7.11441406 10.35695313 8.03351562 10.34765625 8.98046875 C10.33605469 9.69074219 10.32445312 10.40101562 10.3125 11.1328125 C13.2825 11.6278125 13.2825 11.6278125 16.3125 12.1328125 C16.3125 15.7628125 16.3125 19.3928125 16.3125 23.1328125 C14.3325 23.4628125 12.3525 23.7928125 10.3125 24.1328125 C10.3125 31.7228125 10.3125 39.3128125 10.3125 47.1328125 C5.6925 47.1328125 1.0725 47.1328125 -3.6875 47.1328125 C-3.6875 39.2128125 -3.6875 31.2928125 -3.6875 23.1328125 C-5.0075 23.1328125 -6.3275 23.1328125 -7.6875 23.1328125 C-7.6875 19.5028125 -7.6875 15.8728125 -7.6875 12.1328125 C-6.3675 12.1328125 -5.0475 12.1328125 -3.6875 12.1328125 C-3.69910156 11.35035156 -3.71070313 10.56789063 -3.72265625 9.76171875 C-3.73167969 8.74980469 -3.74070312 7.73789062 -3.75 6.6953125 C-3.76160156 5.68597656 -3.77320313 4.67664063 -3.78515625 3.63671875 C-3.64920313 0.15088088 -3.49932324 0.17293167 0 0 Z " fill="#101010" transform="translate(338.6875,14.8671875)"/>
<path d="M0 0 C5.39346988 -0.02464849 10.78690725 -0.04283531 16.18041992 -0.05493164 C18.01668875 -0.05997231 19.85295354 -0.06680477 21.68920898 -0.07543945 C24.32276401 -0.08751672 26.95626616 -0.09323081 29.58984375 -0.09765625 C30.41588608 -0.10281754 31.24192841 -0.10797882 32.09300232 -0.11329651 C34.06236368 -0.11349205 36.03161614 -0.06204152 38 0 C41.77859468 3.77859468 39 10.65626015 39 16 C26.13 16 13.26 16 0 16 C0 10.72 0 5.44 0 0 Z " fill="#0E76BE" transform="translate(2,27)"/>
<path d="M0 0 C12.87 0 25.74 0 39 0 C39 4.95 39 9.9 39 15 C26.13 15 13.26 15 0 15 C0 10.05 0 5.1 0 0 Z " fill="#1779C0" transform="translate(2,54)"/>
<path d="M0 0 C12.87 0 25.74 0 39 0 C39 4.29 39 8.58 39 13 C26.13 13 13.26 13 0 13 C0 8.71 0 4.42 0 0 Z " fill="#0C74BE" transform="translate(2,2)"/>
<path d="M0 0 C3.6380918 1.8190459 4.74556109 2.58117405 7.16015625 5.5390625 C12.05816204 11.3277337 17.51641569 16.5290488 22.94335938 21.81640625 C23.72388672 22.58597656 24.50441406 23.35554688 25.30859375 24.1484375 C26.01814209 24.84114746 26.72769043 25.53385742 27.45874023 26.24755859 C29 28 29 28 29 30 C19.43 30 9.86 30 0 30 C0 20.1 0 10.2 0 0 Z " fill="#1277BF" transform="translate(53,39)"/>
<path d="M0 0 C9.24 0 18.48 0 28 0 C27.67 0.66 27.34 1.32 27 2 C26.34 2 25.68 2 25 2 C24.773125 2.5775 24.54625 3.155 24.3125 3.75 C22.65238361 6.59591381 20.60812043 7.99841921 18 10 C16.31753662 11.65071879 14.65356735 13.32033618 13 15 C10.91903418 17.10651977 8.83481991 19.20979561 6.75 21.3125 C5.93789063 22.13717773 5.93789063 22.13717773 5.109375 22.97851562 C3.75838103 24.3379533 2.3814484 25.67152124 1 27 C0.67 27 0.34 27 0 27 C0 18.09 0 9.18 0 0 Z " fill="#1477BF" transform="translate(53,2)"/>
<path d="M0 0 C10.23 0 20.46 0 31 0 C31 3.96 31 7.92 31 12 C30.01 11.67 29.02 11.34 28 11 C28.33 8.03 28.66 5.06 29 2 C20.09 2 11.18 2 2 2 C2 18.17 2 34.34 2 51 C11.24 51 20.48 51 30 51 C30 47.7 30 44.4 30 41 C24.72 41 19.44 41 14 41 C14.33 40.34 14.66 39.68 15 39 C20.28 39.33 25.56 39.66 31 40 C31 43.96 31 47.92 31 52 C20.77 52 10.54 52 0 52 C0 34.84 0 17.68 0 0 Z " fill="#646464" transform="translate(118,10)"/>
<path d="M0 0 C4.95 0 9.9 0 15 0 C15.33 6.93 15.66 13.86 16 21 C15.34 21 14.68 21 14 21 C13.67 15.06 13.34 9.12 13 3 C9.37 2.67 5.74 2.34 2 2 C2 18.17 2 34.34 2 51 C5.96 51 9.92 51 14 51 C14 44.07 14 37.14 14 30 C16 32 16 32 16.13525391 34.06298828 C16.08288574 34.89040527 16.03051758 35.71782227 15.9765625 36.5703125 C15.925 37.46621094 15.8734375 38.36210938 15.8203125 39.28515625 C15.75585938 40.22230469 15.69140625 41.15945312 15.625 42.125 C15.56828125 43.06988281 15.5115625 44.01476563 15.453125 44.98828125 C15.31143861 47.32610661 15.15692111 49.6631478 15 52 C10.05 52 5.1 52 0 52 C0 34.84 0 17.68 0 0 Z " fill="#494949" transform="translate(196,10)"/>
<path d="M0 0 C0 22.11 0 44.22 0 67 C-3.99996286 65.66667905 -4.83782337 63.5042173 -7 60 C-5.68 60 -4.36 60 -3 60 C-3 41.52 -3 23.04 -3 4 C-4.32 4.99 -5.64 5.98 -7 7 C-3.86206897 0 -3.86206897 0 0 0 Z " fill="#5198CF" transform="translate(98,2)"/>
<path d="M0 0 C0.66 0 1.32 0 2 0 C2.99 2.97 3.98 5.94 5 9 C6.32 6.36 7.64 3.72 9 1 C9.66 1 10.32 1 11 1 C9.36041242 6.23272633 7.61047965 11.15196636 5 16 C4.34 16 3.68 16 3 16 C2.01 12.7 1.02 9.4 0 6 C-1.65 9.3 -3.3 12.6 -5 16 C-5.66 16 -6.32 16 -7 16 C-7.99 11.05 -8.98 6.1 -10 1 C-9.01 1 -8.02 1 -7 1 C-6.34 3.64 -5.68 6.28 -5 9 C-3.35 6.03 -1.7 3.06 0 0 Z " fill="#000000" transform="translate(13,76)"/>
<path d="M0 0 C0.66 0.33 1.32 0.66 2 1 C2.05386629 3.12472576 2.09273071 5.24983652 2.125 7.375 C2.14820313 8.55835937 2.17140625 9.74171875 2.1953125 10.9609375 C2 14 2 14 0 16 C-0.33 13.69 -0.66 11.38 -1 9 C-2.65 11.64 -4.3 14.28 -6 17 C-8 16 -8 16 -9.125 12.9375 C-9.41375 11.968125 -9.7025 10.99875 -10 10 C-10.99 11.98 -11.98 13.96 -13 16 C-13.66 16 -14.32 16 -15 16 C-14.01 11.05 -13.02 6.1 -12 1 C-11.34 1 -10.68 1 -10 1 C-8.68 4.3 -7.36 7.6 -6 11 C-5.195625 9.55625 -4.39125 8.1125 -3.5625 6.625 C-3.11003906 5.81289062 -2.65757812 5.00078125 -2.19140625 4.1640625 C-1.4349464 2.79003378 -0.70145369 1.40290739 0 0 Z " fill="#000000" transform="translate(180,75)"/>
<path d="M0 0 C1.3125 2.0625 1.3125 2.0625 2 4 C0.02 4 -1.96 4 -4 4 C-2.36587557 5.70840281 -1.13093906 6.93453047 1 8 C1.04254356 9.99954746 1.04080783 12.00041636 1 14 C0 15 0 15 -3.5625 15.0625 C-4.696875 15.041875 -5.83125 15.02125 -7 15 C-7.33 13.68 -7.66 12.36 -8 11 C-7.34 11 -6.68 11 -6 11 C-6 11.66 -6 12.32 -6 13 C-4.35 13 -2.7 13 -1 13 C-2.39332574 9.63279613 -3.9789286 8.0140476 -7 6 C-6.814375 5.38125 -6.62875 4.7625 -6.4375 4.125 C-5.76313824 1.95839822 -5.76313824 1.95839822 -7 0 C-4.25509788 -1.37245106 -2.87939419 -0.93580311 0 0 Z " fill="#000000" transform="translate(235,76)"/>
<path d="M0 0 C1.32 0.33 2.64 0.66 4 1 C4 3.31 4 5.62 4 8 C4.804375 7.979375 5.60875 7.95875 6.4375 7.9375 C9 8 9 8 10 9 C10.1875 11.9375 10.1875 11.9375 10 15 C8 17 8 17 4.375 17.125 C3.26125 17.08375 2.1475 17.0425 1 17 C0.88861841 11.54230189 1.08342019 6.38490641 2 1 C1.34 0.67 0.68 0.34 0 0 Z M4 10 C3.67 11.32 3.34 12.64 3 14 C4.485 14.99 4.485 14.99 6 16 C6.66 15.67 7.32 15.34 8 15 C8 13.35 8 11.7 8 10 C6.68 10 5.36 10 4 10 Z " fill="#000000" transform="translate(300,74)"/>
<path d="M0 0 C0.8353125 0.7734375 0.8353125 0.7734375 1.6875 1.5625 C2.6775 0.5725 3.6675 -0.4175 4.6875 -1.4375 C4.6875 1.2025 4.6875 3.8425 4.6875 6.5625 C1.40053767 7.36203138 -0.02273192 7.65908936 -3.3125 6.5625 C-2.9825 4.5825 -2.6525 2.6025 -2.3125 0.5625 C-2.9725 0.5625 -3.6325 0.5625 -4.3125 0.5625 C-4.3125 2.5425 -4.3125 4.5225 -4.3125 6.5625 C-4.9725 6.5625 -5.6325 6.5625 -6.3125 6.5625 C-6.291875 5.77875 -6.27125 4.995 -6.25 4.1875 C-6.12565937 1.58135039 -6.12565937 1.58135039 -7.3125 -0.4375 C-2.88173077 -1.79134615 -2.88173077 -1.79134615 0 0 Z " fill="#000000" transform="translate(348.3125,75.4375)"/>
<path d="M0 0 C1.093125 0.00257812 2.18625 0.00515625 3.3125 0.0078125 C4.405625 0.00523438 5.49875 0.00265625 6.625 0 C9.3125 0.1328125 9.3125 0.1328125 10.3125 1.1328125 C10.38455511 2.81890216 10.39636068 4.50781909 10.375 6.1953125 C10.36597656 7.11441406 10.35695313 8.03351562 10.34765625 8.98046875 C10.33605469 9.69074219 10.32445312 10.40101562 10.3125 11.1328125 C9.3225 11.6278125 9.3225 11.6278125 8.3125 12.1328125 C8.3125 8.8328125 8.3125 5.5328125 8.3125 2.1328125 C4.6825 2.1328125 1.0525 2.1328125 -2.6875 2.1328125 C-2.6875 5.7628125 -2.6875 9.3928125 -2.6875 13.1328125 C-4.3375 13.1328125 -5.9875 13.1328125 -7.6875 13.1328125 C-6.3675 12.8028125 -5.0475 12.4728125 -3.6875 12.1328125 C-3.69910156 11.35035156 -3.71070313 10.56789063 -3.72265625 9.76171875 C-3.73167969 8.74980469 -3.74070312 7.73789062 -3.75 6.6953125 C-3.76160156 5.68597656 -3.77320313 4.67664063 -3.78515625 3.63671875 C-3.64920313 0.15088088 -3.49932324 0.17293167 0 0 Z " fill="#6F6F6F" transform="translate(338.6875,14.8671875)"/>
<path d="M0 0 C0.66 0 1.32 0 2 0 C2 2.31 2 4.62 2 7 C3.32 7 4.64 7 6 7 C6 9.97 6 12.94 6 16 C5.34 16 4.68 16 4 16 C4 13.69 4 11.38 4 9 C3.01 9.495 3.01 9.495 2 10 C1.34227572 13.02934491 1.34227572 13.02934491 1 16 C0.34 16 -0.32 16 -1 16 C-1.11138159 10.54230189 -0.91657981 5.38490641 0 0 Z " fill="#000000" transform="translate(25,75)"/>
<path d="M0 0 C2.64 0 5.28 0 8 0 C8.09765625 6.15234375 8.09765625 6.15234375 8 8 C7 9 7 9 3.4375 9.0625 C2.303125 9.041875 1.16875 9.02125 0 9 C-1.125 6.75 -1.125 6.75 -2 4 C-1.125 1.6875 -1.125 1.6875 0 0 Z M3 1 C2.01 1.99 1.02 2.98 0 4 C0.33 4.99 0.66 5.98 1 7 C2.65 6.67 4.3 6.34 6 6 C5.65213292 4.02463255 5.65213292 4.02463255 5 2 C4.34 1.67 3.68 1.34 3 1 Z " fill="#000000" transform="translate(290,82)"/>
<path d="M0 0 C2.64 0 5.28 0 8 0 C8.09765625 6.15234375 8.09765625 6.15234375 8 8 C7 9 7 9 3.4375 9.0625 C2.303125 9.041875 1.16875 9.02125 0 9 C-1.125 6.75 -1.125 6.75 -2 4 C-1.125 1.6875 -1.125 1.6875 0 0 Z M3 1 C2.01 1.99 1.02 2.98 0 4 C0.33 4.99 0.66 5.98 1 7 C2.65 6.67 4.3 6.34 6 6 C5.65213292 4.02463255 5.65213292 4.02463255 5 2 C4.34 1.67 3.68 1.34 3 1 Z " fill="#000000" transform="translate(263,82)"/>
<path d="M0 0 C2.64 0 5.28 0 8 0 C8.09765625 6.15234375 8.09765625 6.15234375 8 8 C7 9 7 9 3.4375 9.0625 C2.303125 9.041875 1.16875 9.02125 0 9 C-1.125 6.75 -1.125 6.75 -2 4 C-1.125 1.6875 -1.125 1.6875 0 0 Z M3 1 C2.01 1.99 1.02 2.98 0 4 C0.33 4.99 0.66 5.98 1 7 C2.65 6.67 4.3 6.34 6 6 C5.65213292 4.02463255 5.65213292 4.02463255 5 2 C4.34 1.67 3.68 1.34 3 1 Z " fill="#000000" transform="translate(117,82)"/>
<path d="M0 0 C3.4375 0.1875 3.4375 0.1875 4.4375 1.1875 C4.625 4.125 4.625 4.125 4.4375 7.1875 C2.4375 9.1875 2.4375 9.1875 -1.125 9.375 C-4.5625 9.1875 -4.5625 9.1875 -5.5625 8.1875 C-5.75 5.25 -5.75 5.25 -5.5625 2.1875 C-3.5625 0.1875 -3.5625 0.1875 0 0 Z M-0.5625 1.1875 C-1.5525 1.8475 -2.5425 2.5075 -3.5625 3.1875 C-3.5625 4.5075 -3.5625 5.8275 -3.5625 7.1875 C-2.5725 7.5175 -1.5825 7.8475 -0.5625 8.1875 C0.4275 7.5275 1.4175 6.8675 2.4375 6.1875 C2.4375 4.8675 2.4375 3.5475 2.4375 2.1875 C1.4475 1.8575 0.4575 1.5275 -0.5625 1.1875 Z " fill="#000000" transform="translate(142.5625,81.8125)"/>
<path d="M0 0 C2.875 -0.125 2.875 -0.125 6 0 C8 2 8 2 8 5 C5.69 5.33 3.38 5.66 1 6 C2.98 6 4.96 6 7 6 C6.67 6.99 6.34 7.98 6 9 C4.02 9 2.04 9 0 9 C-1.125 6.75 -1.125 6.75 -2 4 C-1.125 1.6875 -1.125 1.6875 0 0 Z M3 1 C2.01 1.495 2.01 1.495 1 2 C1 2.66 1 3.32 1 4 C2.65 4 4.3 4 6 4 C5.01 3.01 4.02 2.02 3 1 Z " fill="#000000" transform="translate(35,82)"/>
<path d="M0 0 C0.66 0 1.32 0 2 0 C2.33 1.65 2.66 3.3 3 5 C3.66 5 4.32 5 5 5 C5.66 3.35 6.32 1.7 7 0 C7.66 0 8.32 0 9 0 C7.53967505 5.31027254 5.01679014 9.46330032 2 14 C1.34 13.67 0.68 13.34 0 13 C0.185625 11.96875 0.37125 10.9375 0.5625 9.875 C0.97307082 6.23851558 0.778309 3.54562991 0 0 Z " fill="#000000" transform="translate(332,82)"/>
<path d="M0 0 C2.5 0.25 2.5 0.25 4.5 2.25 C4.5 3.24 4.5 4.23 4.5 5.25 C2.19 5.25 -0.12 5.25 -2.5 5.25 C-2.5 5.91 -2.5 6.57 -2.5 7.25 C-0.52 6.92 1.46 6.59 3.5 6.25 C3.17 7.24 2.84 8.23 2.5 9.25 C0.50045254 9.29254356 -1.50041636 9.29080783 -3.5 9.25 C-4.5 8.25 -4.5 8.25 -4.6875 5.3125 C-4.45388199 1.49673913 -3.88335294 0.38833529 0 0 Z M-0.5 1.25 C-1.49 2.735 -1.49 2.735 -2.5 4.25 C-0.85 4.25 0.8 4.25 2.5 4.25 C1.51 3.26 0.52 2.27 -0.5 1.25 Z " fill="#000000" transform="translate(200.5,81.75)"/>
<path d="M0 0 C2.5 0.25 2.5 0.25 4.5 2.25 C4.5 3.24 4.5 4.23 4.5 5.25 C2.19 5.25 -0.12 5.25 -2.5 5.25 C-2.5 5.91 -2.5 6.57 -2.5 7.25 C-0.52 6.92 1.46 6.59 3.5 6.25 C3.17 7.24 2.84 8.23 2.5 9.25 C0.50045254 9.29254356 -1.50041636 9.29080783 -3.5 9.25 C-4.5 8.25 -4.5 8.25 -4.6875 5.3125 C-4.45388199 1.49673913 -3.88335294 0.38833529 0 0 Z M-0.5 1.25 C-1.49 2.735 -1.49 2.735 -2.5 4.25 C-0.85 4.25 0.8 4.25 2.5 4.25 C1.51 3.26 0.52 2.27 -0.5 1.25 Z " fill="#000000" transform="translate(189.5,81.75)"/>
<path d="M0 0 C2.5 0.25 2.5 0.25 4.5 2.25 C4.5 3.24 4.5 4.23 4.5 5.25 C2.19 5.25 -0.12 5.25 -2.5 5.25 C-2.5 5.91 -2.5 6.57 -2.5 7.25 C-0.52 6.92 1.46 6.59 3.5 6.25 C3.17 7.24 2.84 8.23 2.5 9.25 C0.50045254 9.29254356 -1.50041636 9.29080783 -3.5 9.25 C-4.5 8.25 -4.5 8.25 -4.6875 5.3125 C-4.45388199 1.49673913 -3.88335294 0.38833529 0 0 Z M-0.5 1.25 C-1.49 2.735 -1.49 2.735 -2.5 4.25 C-0.85 4.25 0.8 4.25 2.5 4.25 C1.51 3.26 0.52 2.27 -0.5 1.25 Z " fill="#000000" transform="translate(55.5,81.75)"/>
<path d="M0 0 C2.33294775 -0.04241723 4.66702567 -0.04092937 7 0 C8 1 8 1 8.1875 3.9375 C8 7 8 7 6 9 C2.875 9.125 2.875 9.125 0 9 C-1.125 6.75 -1.125 6.75 -2 4 C-1.125 1.6875 -1.125 1.6875 0 0 Z M3 1 C2.01 1.99 1.02 2.98 0 4 C0.33 4.99 0.66 5.98 1 7 C1.99 7.33 2.98 7.66 4 8 C4.66 7.67 5.32 7.34 6 7 C6 5.35 6 3.7 6 2 C5.01 1.67 4.02 1.34 3 1 Z " fill="#000000" transform="translate(96,82)"/>
<path d="M0 0 C4.29 0 8.58 0 13 0 C13.33 6.93 13.66 13.86 14 21 C13.34 21 12.68 21 12 21 C11.67 15.06 11.34 9.12 11 3 C7.37 2.67 3.74 2.34 0 2 C0 1.34 0 0.68 0 0 Z " fill="#3E3E3E" transform="translate(198,10)"/>
<path d="M0 0 C2.31 0 4.62 0 7 0 C7 2.97 7 5.94 7 9 C6.34 9 5.68 9 5 9 C5 6.69 5 4.38 5 2 C4.01 2.495 4.01 2.495 3 3 C2.34227572 6.02934491 2.34227572 6.02934491 2 9 C1.01 8.67 0.02 8.34 -1 8 C-0.67 5.36 -0.34 2.72 0 0 Z " fill="#000000" transform="translate(279,82)"/>
<path d="M0 0 C1.134375 0.020625 2.26875 0.04125 3.4375 0.0625 C3.4375 3.0325 3.4375 6.0025 3.4375 9.0625 C2.4475 8.7325 1.4575 8.4025 0.4375 8.0625 C0.4375 6.0825 0.4375 4.1025 0.4375 2.0625 C-0.5525 2.5575 -0.5525 2.5575 -1.5625 3.0625 C-2.22022428 6.09184491 -2.22022428 6.09184491 -2.5625 9.0625 C-3.2225 9.0625 -3.8825 9.0625 -4.5625 9.0625 C-4.66015625 2.91015625 -4.66015625 2.91015625 -4.5625 1.0625 C-3.5625 0.0625 -3.5625 0.0625 0 0 Z " fill="#000000" transform="translate(153.5625,81.9375)"/>
<path d="M0 0 C1.134375 0.020625 2.26875 0.04125 3.4375 0.0625 C3.4375 3.0325 3.4375 6.0025 3.4375 9.0625 C2.4475 8.7325 1.4575 8.4025 0.4375 8.0625 C0.4375 6.0825 0.4375 4.1025 0.4375 2.0625 C-0.5525 2.5575 -0.5525 2.5575 -1.5625 3.0625 C-2.22022428 6.09184491 -2.22022428 6.09184491 -2.5625 9.0625 C-3.2225 9.0625 -3.8825 9.0625 -4.5625 9.0625 C-4.66015625 2.91015625 -4.66015625 2.91015625 -4.5625 1.0625 C-3.5625 0.0625 -3.5625 0.0625 0 0 Z " fill="#000000" transform="translate(88.5625,81.9375)"/>
<path d="M0 0 C1.134375 0.020625 2.26875 0.04125 3.4375 0.0625 C3.4375 3.0325 3.4375 6.0025 3.4375 9.0625 C2.4475 8.7325 1.4575 8.4025 0.4375 8.0625 C0.4375 6.0825 0.4375 4.1025 0.4375 2.0625 C-0.5525 2.5575 -0.5525 2.5575 -1.5625 3.0625 C-2.22022428 6.09184491 -2.22022428 6.09184491 -2.5625 9.0625 C-3.2225 9.0625 -3.8825 9.0625 -4.5625 9.0625 C-4.66015625 2.91015625 -4.66015625 2.91015625 -4.5625 1.0625 C-3.5625 0.0625 -3.5625 0.0625 0 0 Z " fill="#000000" transform="translate(78.5625,81.9375)"/>
<path d="M0 0 C1.65 0 3.3 0 5 0 C5.33 0.66 5.66 1.32 6 2 C5.01 2.495 5.01 2.495 4 3 C4.350625 3.61875 4.70125 4.2375 5.0625 4.875 C5.371875 5.57625 5.68125 6.2775 6 7 C5.67 7.66 5.34 8.32 5 9 C3.02 9 1.04 9 -1 9 C-1.33 8.01 -1.66 7.02 -2 6 C-0.68 6.33 0.64 6.66 2 7 C2.33 6.34 2.66 5.68 3 5 C2.01 4.67 1.02 4.34 0 4 C0 2.68 0 1.36 0 0 Z " fill="#000000" transform="translate(249,82)"/>
<path d="M0 0 C0.66 0 1.32 0 2 0 C2 2.31 2 4.62 2 7 C2.66 6.67 3.32 6.34 4 6 C4.65772428 2.97065509 4.65772428 2.97065509 5 0 C5.66 0 6.32 0 7 0 C7.125 6.75 7.125 6.75 6 9 C4.02 9 2.04 9 0 9 C0 6.03 0 3.06 0 0 Z " fill="#000000" transform="translate(239,82)"/>
<path d="M0 0 C1.65 0 3.3 0 5 0 C5.33 0.66 5.66 1.32 6 2 C5.01 2.495 5.01 2.495 4 3 C4.350625 3.61875 4.70125 4.2375 5.0625 4.875 C5.371875 5.57625 5.68125 6.2775 6 7 C5.67 7.66 5.34 8.32 5 9 C3.02 9 1.04 9 -1 9 C-1.33 8.01 -1.66 7.02 -2 6 C-0.68 6.33 0.64 6.66 2 7 C2.33 6.34 2.66 5.68 3 5 C2.01 4.67 1.02 4.34 0 4 C0 2.68 0 1.36 0 0 Z " fill="#000000" transform="translate(213,82)"/>
<path d="M0 0 C0.66 0 1.32 0 2 0 C2.66 1.32 3.32 2.64 4 4 C4.66 2.68 5.32 1.36 6 0 C6.66 0 7.32 0 8 0 C6.8905928 3.48670834 5.73662334 6.77484237 4 10 C3.34 10 2.68 10 2 10 C0.68373308 6.38026598 0 3.90432869 0 0 Z " fill="#000000" transform="translate(106,82)"/>
<path d="M0 0 C0.99 0.33 1.98 0.66 3 1 C3.11138159 6.45769811 2.91657981 11.61509359 2 17 C1.34 17 0.68 17 0 17 C0 11.39 0 5.78 0 0 Z " fill="#000000" transform="translate(317,74)"/>
<path d="M0 0 C0.66 0.99 1.32 1.98 2 3 C-0.31 5.31 -2.62 7.62 -5 10 C-5.99 9.67 -6.98 9.34 -8 9 C-5.36 6.03 -2.72 3.06 0 0 Z " fill="#287EC2" transform="translate(90,9)"/>
<path d="M0 0 C1.32 0.33 2.64 0.66 4 1 C4.33 2.32 4.66 3.64 5 5 C4.34 5 3.68 5 3 5 C3 7.64 3 10.28 3 13 C2.34 13 1.68 13 1 13 C0.9729957 11.54176788 0.95360213 10.08339325 0.9375 8.625 C0.92589844 7.81289062 0.91429687 7.00078125 0.90234375 6.1640625 C1 4 1 4 2 2 C1.34 2 0.68 2 0 2 C0 1.34 0 0.68 0 0 Z " fill="#000000" transform="translate(256,78)"/>
<path d="M0 0 C0.99 0.33 1.98 0.66 3 1 C3.6875 3.0625 3.6875 3.0625 4 5 C3.34 5 2.68 5 2 5 C2 7.31 2 9.62 2 12 C1.01 12 0.02 12 -1 12 C-1.14285714 3.42857143 -1.14285714 3.42857143 0 0 Z " fill="#000000" transform="translate(128,78)"/>
<path d="M0 0 C0.66 0 1.32 0 2 0 C1.67 4.62 1.34 9.24 1 14 C0.34 14 -0.32 14 -1 14 C-1.18451025 4.58997722 -1.18451025 4.58997722 0 0 Z " fill="#000000" transform="translate(70,77)"/>
<path d="M0 0 C0.66 0 1.32 0 2 0 C2.33 1.32 2.66 2.64 3 4 C2.34 4 1.68 4 1 4 C1 6.31 1 8.62 1 11 C0.01 11 -0.98 11 -2 11 C-2.25 3.375 -2.25 3.375 0 0 Z " fill="#000000" transform="translate(209,79)"/>
<path d="M0 0 C1.65 0 3.3 0 5 0 C5 0.66 5 1.32 5 2 C4.01 2.495 4.01 2.495 3 3 C2.34227572 6.02934491 2.34227572 6.02934491 2 9 C1.01 8.67 0.02 8.34 -1 8 C-0.67 5.36 -0.34 2.72 0 0 Z " fill="#000000" transform="translate(45,82)"/>
<path d="M0 0 C0.66 0 1.32 0 2 0 C2.33 1.32 2.66 2.64 3 4 C2.34 4 1.68 4 1 4 C1 6.64 1 9.28 1 12 C0.34 12 -0.32 12 -1 12 C-1.02712066 10.56260487 -1.04645067 9.12506137 -1.0625 7.6875 C-1.07410156 6.88699219 -1.08570313 6.08648437 -1.09765625 5.26171875 C-1 3 -1 3 0 0 Z " fill="#000000" transform="translate(328,79)"/>
<path d="M0 0 C0.66 0 1.32 0 2 0 C2 2.97 2 5.94 2 9 C1.01 8.67 0.02 8.34 -1 8 C-0.67 5.36 -0.34 2.72 0 0 Z " fill="#000000" transform="translate(313,82)"/>
<path d="M0 0 C0.66 0 1.32 0 2 0 C2 2.97 2 5.94 2 9 C1.01 8.67 0.02 8.34 -1 8 C-0.67 5.36 -0.34 2.72 0 0 Z " fill="#000000" transform="translate(274,82)"/>
<path d="M0 0 C0.66 0 1.32 0 2 0 C2 2.97 2 5.94 2 9 C1.01 8.67 0.02 8.34 -1 8 C-0.67 5.36 -0.34 2.72 0 0 Z " fill="#000000" transform="translate(133,82)"/>
<path d="M0 0 C0.66 0.33 1.32 0.66 2 1 C1.67 3.64 1.34 6.28 1 9 C0.34 9 -0.32 9 -1 9 C-1.09765625 2.84765625 -1.09765625 2.84765625 -1 1 C-0.67 0.67 -0.34 0.34 0 0 Z " fill="#000000" transform="translate(323,82)"/>
<path d="M0 0 C0.66 0 1.32 0 2 0 C2 0.66 2 1.32 2 2 C1.34 2 0.68 2 0 2 C0 1.34 0 0.68 0 0 Z " fill="#000000" transform="translate(323,79)"/>
<path d="M0 0 C0.66 0 1.32 0 2 0 C2 0.66 2 1.32 2 2 C1.34 2 0.68 2 0 2 C0 1.34 0 0.68 0 0 Z " fill="#000000" transform="translate(314,79)"/>
<path d="M0 0 C0.66 0 1.32 0 2 0 C2 0.66 2 1.32 2 2 C1.34 2 0.68 2 0 2 C0 1.34 0 0.68 0 0 Z " fill="#000000" transform="translate(275,79)"/>
<path d="M0 0 C0.66 0 1.32 0 2 0 C2 0.66 2 1.32 2 2 C1.34 2 0.68 2 0 2 C0 1.34 0 0.68 0 0 Z " fill="#000000" transform="translate(134,79)"/>
</svg>
